<svg width="0" height="0" class="hidden">
  <symbol xmlns="http://www.w3.org/2000/svg" viewBox="0 0 24 24" id="clock">
    <path d="M15.91 13.34l2.636-4.026-.454-.406-3.673 3.099c-.675-.138-1.402.068-1.894.618-.736.823-.665 2.088.159 2.824.824.736 2.088.665 2.824-.159.492-.55.615-1.295.402-1.95zm-3.91-10.646v-2.694h4v2.694c-1.439-.243-2.592-.238-4 0zm8.851 2.064l1.407-1.407 1.414 1.414-1.321 1.321c-.462-.484-.964-.927-1.5-1.328zm-18.851 4.242h8v2h-8v-2zm-2 4h8v2h-8v-2zm3 4h7v2h-7v-2zm21-3c0 5.523-4.477 10-10 10-2.79 0-5.3-1.155-7.111-3h3.28c1.138.631 2.439 1 3.831 1 4.411 0 8-3.589 8-8s-3.589-8-8-8c-1.392 0-2.693.369-3.831 1h-3.28c1.811-1.845 4.321-3 7.111-3 5.523 0 10 4.477 10 10z"></path>
  </symbol>
  <symbol version="1.1" id="computer" xmlns="http://www.w3.org/2000/svg" xmlns:xlink="http://www.w3.org/1999/xlink" x="0px" y="0px" xml:space="preserve" viewBox="0 0 176.708 176.707">
    <g>
      <g>
        <path d="M161.423,11.661H15.281C6.877,11.661,0,18.544,0,26.941v97.326c0,8.409,6.884,15.283,15.281,15.283h66.837v13.025H35.354
			l-6.235,6.235v6.235h118.47v-6.235l-6.234-6.235H94.588v-13.019h66.835c8.415,0,15.284-6.881,15.284-15.284V26.941
			C176.708,18.544,169.838,11.661,161.423,11.661z M170.472,105.567c0,4.993-4.056,9.049-9.049,9.049H15.281
			c-4.987,0-9.045-4.056-9.045-9.049V26.941c0-4.987,4.058-9.045,9.045-9.045h146.143c4.993,0,9.049,4.058,9.049,9.045V105.567z"></path>
        <path d="M88.354,28.619c-20.658,0-37.412,16.76-37.412,37.412c0,4.883,0.935,9.548,2.637,13.826
			c5.501,13.825,19.001,23.586,34.775,23.586c15.771,0,29.264-9.761,34.769-23.568c1.705-4.284,2.643-8.954,2.643-13.844
			C125.765,45.373,109.008,28.619,88.354,28.619z M90.491,68.399l-4.405-4.408l21.516-17.107L90.491,68.399z M118.775,78.139
			l-2.893-1.16c1.395-3.483,2.089-7.164,2.089-10.955c0-8.174-3.324-15.576-8.695-20.938l-1.638,1.647
			c-5.158-5.146-12.002-7.983-19.284-7.983c-15.041,0-27.28,12.239-27.28,27.279c0,3.486,0.648,6.877,1.921,10.078l-3.623,1.44
			l-1.446,0.573l-2.171,0.867c-1.641-4.122-2.476-8.479-2.476-12.958c0-19.342,15.731-35.074,35.074-35.074
			c9.364,0,18.17,3.642,24.795,10.264l-1.669,1.665c5.938,5.925,9.608,14.118,9.608,23.145
			C121.088,70.214,120.309,74.288,118.775,78.139z"></path>
      </g>
    </g>
    <g></g>
    <g></g>
    <g></g>
    <g></g>
    <g></g>
    <g></g>
    <g></g>
    <g></g>
    <g></g>
    <g></g>
    <g></g>
    <g></g>
    <g></g>
    <g></g>
    <g></g>
  </symbol>
  <symbol id="easy" xmlns="http://www.w3.org/2000/svg" viewBox="0 0 85.55 122.88">
    <defs></defs>
    <title>hand-mouse-cursor</title>
    <path d="M31.66,83.11a2.37,2.37,0,0,1-4.74,0V78.74a2.82,2.82,0,0,1-.36-.24C25.06,77.3,23.4,76,22,74.77c-2.07-1.69-4.45-3.64-6.1-5a8.76,8.76,0,0,0-3.65-1.84,3.78,3.78,0,0,0-2.06.09A2.15,2.15,0,0,0,9,69.15a7.27,7.27,0,0,0-.41,3.33,12.62,12.62,0,0,0,1.15,4.1,27.12,27.12,0,0,0,3,5.06l.15.22,18,27.21a2.36,2.36,0,0,1,.38,1,15.66,15.66,0,0,0,1.92,6.57,2.94,2.94,0,0,0,2.63,1.49H64.05a8.39,8.39,0,0,0,4.8-1.55,15.29,15.29,0,0,0,4.4-5.15l.34-.58c3.5-6,6.89-11.87,7.24-18.81l-.18-8c0-.11,0-.23,0-.35l0-1.89c.07-5.32.15-11.9-4.72-12.73H72.78c0,1.5-.11,3-.2,4.5-.09,1.32-.17,2.6-.17,3.81a2.37,2.37,0,0,1-4.73,0c0-1.22.09-2.64.18-4.1.32-5,.68-10.77-3.33-11.49H61.42a2.76,2.76,0,0,1-.51,0c0,1.81-.09,3.69-.2,5.5-.09,1.32-.17,2.6-.17,3.81a2.37,2.37,0,1,1-4.73,0c0-1.22.09-2.63.18-4.1.32-5,.68-10.77-3.33-11.49H49.55a2.11,2.11,0,0,1-.62-.08v9.17a2.37,2.37,0,0,1-4.74,0V39.93c0-4.11-1.68-6.71-3.82-7.8a5.48,5.48,0,0,0-2.47-.6,5.38,5.38,0,0,0-2.46.6c-2.13,1.08-3.78,3.69-3.78,7.9V83.11ZM11.92,37.63a3.12,3.12,0,1,1,0,6.23H3.11a3.12,3.12,0,0,1,0-6.23ZM20.82,19a3.12,3.12,0,0,1-4.43,4.39l-7-7A3.11,3.11,0,1,1,13.82,12l7,7Zm41,24.84a3.12,3.12,0,0,1,0-6.23h8.81a3.12,3.12,0,1,1,0,6.23ZM57.3,22.73a3.12,3.12,0,0,1-4.42-4.4l7-7a3.12,3.12,0,0,1,4.42,4.4l-7,7Zm-17-10.81a3.12,3.12,0,1,1-6.23,0V3.11a3.12,3.12,0,0,1,6.23,0v8.81Zm26.8,78.56a1.94,1.94,0,1,1,3.87,0v8.84a1.94,1.94,0,0,1-3.87,0V90.48ZM55.64,86.57a1.94,1.94,0,0,1,3.87,0V99.32a1.94,1.94,0,0,1-3.87,0V86.57ZM26.92,72.72V40c0-6.26,2.8-10.3,6.37-12.12a10.21,10.21,0,0,1,9.2,0c3.61,1.82,6.44,5.86,6.44,12V50.78a2.51,2.51,0,0,1,.62-.08h3.26a2.33,2.33,0,0,1,.53.06,7.89,7.89,0,0,1,7.08,6.49,2.36,2.36,0,0,1,1-.22h3.26a2.33,2.33,0,0,1,.53.06c4.68.72,6.57,3.6,7.24,7.24a2.22,2.22,0,0,1,.37,0h3.26a2.33,2.33,0,0,1,.53.06c9,1.38,8.85,10.29,8.76,17.47,0,3.38.1,6.76.18,10.14a2.43,2.43,0,0,1,0,.27c-.4,8.12-4.08,14.46-7.87,21l-.32.57a20.15,20.15,0,0,1-5.82,6.69,13.15,13.15,0,0,1-7.47,2.38H35.86a7.35,7.35,0,0,1-6.6-3.58,19.2,19.2,0,0,1-2.62-8.08L9,84.47a32,32,0,0,1-3.52-6,17.06,17.06,0,0,1-1.53-5.71,11.59,11.59,0,0,1,.82-5.56,6.7,6.7,0,0,1,3.64-3.58,8.25,8.25,0,0,1,4.74-.35,13.42,13.42,0,0,1,5.76,2.84c1.43,1.18,3.79,3.12,6.09,5l2,1.61Z"></path>
  </symbol>
  <symbol fill="#000000" xmlns="http://www.w3.org/2000/svg" viewBox="0 0 24 24" id="menu">
    <path d="M 3 5 A 1.0001 1.0001 0 1 0 3 7 L 21 7 A 1.0001 1.0001 0 1 0 21 5 L 3 5 z M 3 11 A 1.0001 1.0001 0 1 0 3 13 L 21 13 A 1.0001 1.0001 0 1 0 21 11 L 3 11 z M 3 17 A 1.0001 1.0001 0 1 0 3 19 L 21 19 A 1.0001 1.0001 0 1 0 21 17 L 3 17 z"></path>
  </symbol>
  <symbol id="picture" xmlns="http://www.w3.org/2000/svg" viewBox="0 0 122.88 91.27">
    <defs></defs>
    <title>picture</title>
    <path d="M87.29,16.88A11.35,11.35,0,1,1,75.94,28.23,11.35,11.35,0,0,1,87.29,16.88Zm27.33,74.39H8.26a8.27,8.27,0,0,1-5.83-2.44h0A8.24,8.24,0,0,1,0,83V8.26A8.26,8.26,0,0,1,2.42,2.42h0A8.26,8.26,0,0,1,8.26,0H114.62a8.26,8.26,0,0,1,5.83,2.43h0a8.26,8.26,0,0,1,2.42,5.84V83a8.24,8.24,0,0,1-2.42,5.83h0a8.27,8.27,0,0,1-5.83,2.44Zm-7.35-9.43L87.6,50.46a4.52,4.52,0,0,0-7.65,0L70.66,65.39,80.77,81.84H76.62l-27.57-44c-2.54-3.39-6.61-3.13-8.88,0l-27,44H9.42V9.42h104V81.84Z"></path>
  </symbol>
  <symbol id="quotes" xmlns="http://www.w3.org/2000/svg" viewBox="0 0 122.88 122.09">
    <title>comment-bubble</title>
    <path d="M31.23,113.89,30,115.11a5.2,5.2,0,0,1-9-3.48V99.45H19.39A9,9,0,0,1,13,96.79a9.28,9.28,0,0,1-1.82-2.61h-.44A10.75,10.75,0,0,1,0,83.45V10.73A10.68,10.68,0,0,1,2.8,3.56l.36-.4A10.72,10.72,0,0,1,10.73,0h94.41A10.81,10.81,0,0,1,115.7,8.79a9.2,9.2,0,0,1,4.51,2.47,9.05,9.05,0,0,1,2.67,6.4V90.38a9.08,9.08,0,0,1-9.07,9.07h-54L37.39,120.93a3.54,3.54,0,0,1-6.16-2.37v-4.67ZM27.94,60.37a3.54,3.54,0,0,1,0-7.07H76.87a3.54,3.54,0,1,1,0,7.07Zm0-23a3.54,3.54,0,0,1,0-7.07h60a3.54,3.54,0,0,1,0,7.07ZM26.1,111.63,49.71,89h55.43a5.55,5.55,0,0,0,5.54-5.53V10.73a5.58,5.58,0,0,0-5.54-5.53H10.73A5.59,5.59,0,0,0,5.2,10.73V83.45A5.57,5.57,0,0,0,10.73,89H26.1v22.65Z"></path>
  </symbol>
  <symbol fill="#000000" xmlns="http://www.w3.org/2000/svg" viewBox="0 0 50 50" id="search">
    <path d="M 21 3 C 11.621094 3 4 10.621094 4 20 C 4 29.378906 11.621094 37 21 37 C 24.710938 37 28.140625 35.804688 30.9375 33.78125 L 44.09375 46.90625 L 46.90625 44.09375 L 33.90625 31.0625 C 36.460938 28.085938 38 24.222656 38 20 C 38 10.621094 30.378906 3 21 3 Z M 21 5 C 29.296875 5 36 11.703125 36 20 C 36 28.296875 29.296875 35 21 35 C 12.703125 35 6 28.296875 6 20 C 6 11.703125 12.703125 5 21 5 Z"></path>
  </symbol>
  <symbol fill="#000000" xmlns="http://www.w3.org/2000/svg" viewBox="0 0 24 24" id="settings">
    <path d="M 10.490234 2 C 10.011234 2 9.6017656 2.3385938 9.5097656 2.8085938 L 9.1757812 4.5234375 C 8.3550224 4.8338012 7.5961042 5.2674041 6.9296875 5.8144531 L 5.2851562 5.2480469 C 4.8321563 5.0920469 4.33375 5.2793594 4.09375 5.6933594 L 2.5859375 8.3066406 C 2.3469375 8.7216406 2.4339219 9.2485 2.7949219 9.5625 L 4.1132812 10.708984 C 4.0447181 11.130337 4 11.559284 4 12 C 4 12.440716 4.0447181 12.869663 4.1132812 13.291016 L 2.7949219 14.4375 C 2.4339219 14.7515 2.3469375 15.278359 2.5859375 15.693359 L 4.09375 18.306641 C 4.33275 18.721641 4.8321562 18.908906 5.2851562 18.753906 L 6.9296875 18.1875 C 7.5958842 18.734206 8.3553934 19.166339 9.1757812 19.476562 L 9.5097656 21.191406 C 9.6017656 21.661406 10.011234 22 10.490234 22 L 13.509766 22 C 13.988766 22 14.398234 21.661406 14.490234 21.191406 L 14.824219 19.476562 C 15.644978 19.166199 16.403896 18.732596 17.070312 18.185547 L 18.714844 18.751953 C 19.167844 18.907953 19.66625 18.721641 19.90625 18.306641 L 21.414062 15.691406 C 21.653063 15.276406 21.566078 14.7515 21.205078 14.4375 L 19.886719 13.291016 C 19.955282 12.869663 20 12.440716 20 12 C 20 11.559284 19.955282 11.130337 19.886719 10.708984 L 21.205078 9.5625 C 21.566078 9.2485 21.653063 8.7216406 21.414062 8.3066406 L 19.90625 5.6933594 C 19.66725 5.2783594 19.167844 5.0910937 18.714844 5.2460938 L 17.070312 5.8125 C 16.404116 5.2657937 15.644607 4.8336609 14.824219 4.5234375 L 14.490234 2.8085938 C 14.398234 2.3385937 13.988766 2 13.509766 2 L 10.490234 2 z M 12 8 C 14.209 8 16 9.791 16 12 C 16 14.209 14.209 16 12 16 C 9.791 16 8 14.209 8 12 C 8 9.791 9.791 8 12 8 z"></path>
  </symbol>
  <symbol xmlns="http://www.w3.org/2000/svg" viewBox="0 0 48 48" id="tick">
    <path fill="#43A047" d="M40.6 12.1L17 35.7 7.4 26.1 4.6 29 17 41.3 43.4 14.9z"></path>
  </symbol>
  <symbol fill="#000000" xmlns="http://www.w3.org/2000/svg" viewBox="0 0 50 50" id="wordpress">
    <path d="M 25 2 C 12.311335 2 2 12.311335 2 25 C 2 37.688665 12.311335 48 25 48 C 37.688665 48 48 37.688665 48 25 C 48 12.311335 37.688665 2 25 2 z M 25 4 C 36.607335 4 46 13.392665 46 25 C 46 36.607335 36.607335 46 25 46 C 13.392665 46 4 36.607335 4 25 C 4 13.392665 13.392665 4 25 4 z M 25 6 C 14.513273 6 6 14.513273 6 25 C 6 35.486727 14.513273 44 25 44 C 35.486727 44 44 35.486727 44 25 C 44 14.513273 35.486727 6 25 6 z M 25 8 C 28.972457 8 32.611711 9.3659473 35.501953 11.638672 C 34.996253 12.258468 34.699219 13.053218 34.699219 13.900391 C 34.699219 15.500391 35.599609 16.9 36.599609 18.5 C 37.399609 19.8 38.199219 21.500391 38.199219 23.900391 C 38.199219 25.600391 37.699219 27.700781 36.699219 30.300781 L 34.699219 36.900391 L 27.599609 15.699219 C 28.799609 15.599219 29.900391 15.5 29.900391 15.5 C 30.900391 15.4 30.800781 13.900391 29.800781 13.900391 L 29.699219 13.900391 C 29.699219 13.900391 26.500391 14.199219 24.400391 14.199219 C 22.500391 14.199219 19.199219 13.900391 19.199219 13.900391 L 19.099609 13.900391 C 18.099609 13.900391 18 15.5 19 15.5 C 19 15.5 19.999609 15.599219 21.099609 15.699219 L 24.199219 24.099609 L 19.900391 37 L 12.699219 15.599609 C 13.899219 15.499609 15 15.400391 15 15.400391 C 16 15.300391 15.900391 13.800781 14.900391 13.800781 L 14.800781 13.800781 C 14.800781 13.800781 13.489398 13.908495 12.044922 13.996094 C 15.160169 10.329869 19.798156 8 25 8 z M 37.087891 13.041016 C 38.448711 14.416493 39.563287 16.029037 40.392578 17.804688 C 40.371407 18.936367 40.18331 20.06754 39.900391 21.199219 C 39.500391 19.799219 39.000391 18.599609 38.400391 17.599609 L 38.199219 17.199219 C 37.399219 15.899219 36.800781 14.9 36.800781 14 C 36.800781 13.657445 36.90014 13.319256 37.087891 13.041016 z M 23.599609 16.099609 L 24.599609 16.099609 C 24.999609 16.199609 25.300781 16.199219 25.800781 16.199219 L 25.900391 16.400391 L 33 37.599609 L 33.697266 39.595703 C 33.315814 39.823057 32.925515 40.03486 32.525391 40.232422 L 27.199219 26 L 26.5 24.099609 L 26.300781 23.400391 L 23.599609 16.099609 z M 10.466797 16.199219 L 10.900391 16.199219 L 11 16.400391 L 18.199219 37.800781 L 18.800781 39.599609 L 18.457031 40.697266 C 18.182132 40.58291 17.919668 40.446492 17.652344 40.318359 L 9.5175781 17.994141 C 9.7979121 17.37391 10.116921 16.776828 10.466797 16.199219 z M 41.585938 21.294922 C 41.850288 22.488424 42 23.72552 42 25 C 42 30.25918 39.623202 34.947175 35.886719 38.0625 L 40.599609 24.400391 C 41.036946 23.287576 41.352417 22.261425 41.585938 21.294922 z M 8.3671875 21.472656 L 14.580078 38.423828 C 10.579353 35.316928 8 30.471959 8 25 C 8 23.789693 8.1281354 22.610588 8.3671875 21.472656 z M 25 26.599609 L 30.341797 41.134766 C 28.661425 41.688806 26.868914 42 25 42 C 23.258628 42 21.58037 41.735639 20 41.251953 L 25 26.599609 z"></path>
  </symbol>
</svg>